<?xml version="1.0" encoding="UTF-8"?>
<svg width="110px" height="110px" viewBox="0 0 110 110" version="1.1" xmlns="http://www.w3.org/2000/svg" xmlns:xlink="http://www.w3.org/1999/xlink">
    <!-- Generator: Sketch 50.2 (55047) - http://www.bohemiancoding.com/sketch -->
    <title>icon</title>
    <desc>Created with Sketch.</desc>
    <defs>
        <linearGradient x1="50%" y1="0%" x2="50%" y2="97.8188223%" id="linearGradient-1">
            <stop stop-color="#FF107F" offset="0%"></stop>
            <stop stop-color="#FF493E" offset="100%"></stop>
        </linearGradient>
    </defs>
    <g id="Page-1" stroke="none" stroke-width="1" fill="none" fill-rule="evenodd">
        <g id="icon" fill="url(#linearGradient-1)" fill-rule="nonzero">
            <path d="M55,110 C24.6243388,110 0,85.3756612 0,55 C0,24.6243388 24.6243388,0 55,0 C85.3756612,0 110,24.6243388 110,55 C110,85.3756612 85.3756612,110 55,110 Z M38,34 C36.3431458,34 35,35.3431458 35,37 L35,41 C35,42.6568542 36.3431458,44 38,44 L40,44 C41.6568542,44 43,45.3431458 43,47 L43,73 C43,74.6568542 44.3431458,76 46,76 L50,76 C51.6568542,76 53,74.6568542 53,73 L53,47 C53,45.3431458 54.3431458,44 56,44 L72,44 C73.6568542,44 75,42.6568542 75,41 L75,37 C75,35.3431458 73.6568542,34 72,34 L38,34 Z M62,66 C60.3431458,66 59,67.3431458 59,69 L59,73 C59,74.6568542 60.3431458,76 62,76 L66,76 C67.6568542,76 69,74.6568542 69,73 L69,69 C69,67.3431458 67.6568542,66 66,66 L62,66 Z M62,50 C60.3431458,50 59,51.3431458 59,53 L59,57 C59,58.6568542 60.3431458,60 62,60 L66,60 C67.6568542,60 69,58.6568542 69,57 L69,53 C69,51.3431458 67.6568542,50 66,50 L62,50 Z" id="path-2"></path>
        </g>
    </g>
</svg>