<svg width="19" height="17" viewBox="0 0 19 17" fill="none" xmlns="http://www.w3.org/2000/svg">
<path d="M17.4159 11.9598C17.4153 11.959 17.4148 11.9585 17.4141 11.9578C17.442 11.863 17.4707 11.7689 17.4951 11.6717C18.5396 7.51036 15.9903 2.59046 11.6762 0C13.5667 2.56266 14.4026 5.66664 13.66 8.38112C13.5937 8.62324 13.5141 8.85561 13.4261 9.08146C13.3306 9.0187 13.2102 8.94747 13.0486 8.85837C13.0486 8.85837 8.7573 6.20892 4.10622 1.52271C3.98418 1.3997 6.58636 5.24177 9.53955 8.36163C8.14819 7.58083 4.27068 4.75977 1.81595 2.51321C2.11754 3.01614 2.47625 3.50041 2.87055 3.96664C4.92046 6.56617 7.5938 9.77357 10.7966 12.2365C8.54627 13.6135 5.36655 13.7206 2.20064 12.2379C1.41758 11.871 0.681439 11.4282 0 10.9252C1.34012 13.0686 3.4041 14.9179 5.91615 15.9975C8.91188 17.2849 11.8909 17.1976 14.1097 16.0186L14.108 16.0212C14.1181 16.0148 14.131 16.0078 14.1415 16.0013C14.2326 15.9523 14.323 15.9025 14.4114 15.8498C15.4775 15.2965 17.5831 14.7351 18.7133 16.934C18.9901 17.4722 19.5783 14.6203 17.4159 11.9598Z" fill="#F05138"/>
</svg>
